<svg width="124" height="122" viewBox="0 0 124 122" fill="none" xmlns="http://www.w3.org/2000/svg">
<path d="M50.9 101.6C78.9 101.6 101.6 78.9 101.6 50.8C101.6 22.7 78.9 0 50.9 0C22.9 0 0.200012 22.7 0.200012 50.8C0.200012 78.9 22.9 101.6 50.9 101.6Z" fill="#E54056" fill-opacity="0.2"/>
<path d="M82.3 21.2003V62.9003C82.3 65.4003 80.2 67.5003 77.7 67.5003H8.69998C6.19998 67.5003 4.09998 65.5003 4.09998 62.9003V21.2003C4.09998 18.7003 6.19998 16.6003 8.69998 16.6003H77.7C80.2 16.6003 82.3 18.7003 82.3 21.2003Z" fill="#EE8C97"/>
<path opacity="0.3" d="M82.4 35V62.8C82.4 65.3 80.3 67.4 77.8 67.4H20V39.6C20 37.1 22 35 24.6 35H82.4Z" fill="#E64056"/>
<g filter="url(#filter0_d_499_6232)">
<path d="M94.6 88.5003H30.5C26.6 88.5003 23.5 85.4003 23.5 81.5003V44.6003C23.5 40.7003 26.6 37.6003 30.5 37.6003H94.6C98.5 37.6003 101.6 40.7003 101.6 44.6003V81.5003C101.6 85.4003 98.5 88.5003 94.6 88.5003Z" fill="url(#paint0_linear_499_6232)"/>
</g>
<path d="M43.3 77.0003H33.1C32.2 77.0003 31.5 76.3003 31.5 75.4003C31.5 74.5003 32.2 73.8003 33.1 73.8003H43.3C44.2 73.8003 44.9 74.5003 44.9 75.4003C44.9 76.3003 44.2 77.0003 43.3 77.0003Z" fill="#FFDBD8"/>
<path d="M59.8 77.0003H49.6C48.7 77.0003 48 76.3003 48 75.4003C48 74.5003 48.7 73.8003 49.6 73.8003H59.8C60.7 73.8003 61.4 74.5003 61.4 75.4003C61.4 76.3003 60.7 77.0003 59.8 77.0003Z" fill="#FFDBD8"/>
<path d="M76.3 77.0003H66.1C65.2 77.0003 64.5 76.3003 64.5 75.4003C64.5 74.5003 65.2 73.8003 66.1 73.8003H76.3C77.2 73.8003 77.9 74.5003 77.9 75.4003C77.9 76.3003 77.2 77.0003 76.3 77.0003Z" fill="#FFDBD8"/>
<path d="M92.8 77.0003H82.6C81.7 77.0003 81 76.3003 81 75.4003C81 74.5003 81.7 73.8003 82.6 73.8003H92.8C93.7 73.8003 94.4 74.5003 94.4 75.4003C94.4 76.3003 93.7 77.0003 92.8 77.0003Z" fill="#FFDBD8"/>
<path d="M89.1 57.8003C92.4137 57.8003 95.1 55.114 95.1 51.8003C95.1 48.4866 92.4137 45.8003 89.1 45.8003C85.7863 45.8003 83.1 48.4866 83.1 51.8003C83.1 55.114 85.7863 57.8003 89.1 57.8003Z" fill="#E64056"/>
<path d="M81.2 57.8003C84.5137 57.8003 87.2 55.114 87.2 51.8003C87.2 48.4866 84.5137 45.8003 81.2 45.8003C77.8863 45.8003 75.2 48.4866 75.2 51.8003C75.2 55.114 77.8863 57.8003 81.2 57.8003Z" fill="#FFDBD8"/>
<path d="M82.3 25.1003H4.19998V34.9003H82.3V25.1003Z" fill="#E64056"/>
<path d="M44.2 59.7H33C32.2 59.7 31.5 59 31.5 58.2V51C31.5 50.2 32.2 49.5 33 49.5H44.1C44.9 49.5 45.6 50.2 45.6 51V58.2C45.7 59 45 59.7 44.2 59.7Z" fill="#E54056" fill-opacity="0.6"/>
<path d="M89 110C102.807 110 114 98.8071 114 85C114 71.1929 102.807 60 89 60C75.1929 60 64 71.1929 64 85C64 98.8071 75.1929 110 89 110Z" fill="#E64056"/>
<path d="M91.65 84.9999L97.4 79.2499C98.125 78.5249 98.125 77.3249 97.4 76.5999C96.675 75.8749 95.475 75.8749 94.75 76.5999L89 82.3499L83.25 76.5999C82.525 75.8749 81.325 75.8749 80.6 76.5999C79.875 77.3249 79.875 78.5249 80.6 79.2499L86.35 84.9999L80.6 90.7499C79.875 91.4749 79.875 92.6749 80.6 93.3999C80.975 93.7749 81.45 93.9499 81.925 93.9499C82.4 93.9499 82.875 93.7749 83.25 93.3999L89 87.6499L94.75 93.3999C95.125 93.7749 95.6 93.9499 96.075 93.9499C96.55 93.9499 97.025 93.7749 97.4 93.3999C98.125 92.6749 98.125 91.4749 97.4 90.7499L91.65 84.9999Z" fill="white"/>
<defs>
<filter id="filter0_d_499_6232" x="1.49997" y="26.6003" width="122.1" height="94.8999" filterUnits="userSpaceOnUse" color-interpolation-filters="sRGB">
<feFlood flood-opacity="0" result="BackgroundImageFix"/>
<feColorMatrix in="SourceAlpha" type="matrix" values="0 0 0 0 0 0 0 0 0 0 0 0 0 0 0 0 0 0 127 0" result="hardAlpha"/>
<feOffset dy="11"/>
<feGaussianBlur stdDeviation="11"/>
<feColorMatrix type="matrix" values="0 0 0 0 0.397708 0 0 0 0 0.47749 0 0 0 0 0.575 0 0 0 0.27 0"/>
<feBlend mode="normal" in2="BackgroundImageFix" result="effect1_dropShadow_499_6232"/>
<feBlend mode="normal" in="SourceGraphic" in2="effect1_dropShadow_499_6232" result="shape"/>
</filter>
<linearGradient id="paint0_linear_499_6232" x1="62.5245" y1="36.423" x2="62.5245" y2="89.0491" gradientUnits="userSpaceOnUse">
<stop stop-color="#FDFEFF"/>
<stop offset="0.9964" stop-color="#ECF0F5"/>
</linearGradient>
</defs>
</svg>
