<svg width="28" height="28" viewBox="0 0 28 28" fill="none" xmlns="http://www.w3.org/2000/svg">
<path d="M25.0567 10.5993L16.4082 3.48262C15.729 2.92645 14.8781 2.62256 14.0002 2.62256C13.1223 2.62256 12.2715 2.92645 11.5922 3.48262L2.94371 10.5993C2.855 10.6724 2.78156 10.7622 2.72757 10.8637C2.67358 10.9651 2.6401 11.0762 2.62905 11.1906C2.618 11.305 2.6296 11.4205 2.66317 11.5304C2.69674 11.6403 2.75163 11.7426 2.82471 11.8313C2.89779 11.92 2.98763 11.9934 3.08909 12.0474C3.19056 12.1014 3.30166 12.1349 3.41606 12.1459C3.53047 12.157 3.64592 12.1454 3.75585 12.1118C3.86577 12.0783 3.968 12.0234 4.05671 11.9503L5.25021 10.9668V21.0001C5.25021 23.6718 6.66188 25.0835 9.33354 25.0835H18.6669C21.3385 25.0835 22.7502 23.6718 22.7502 21.0001V10.9668L23.9437 11.948C24.0324 12.021 24.1347 12.0759 24.2446 12.1095C24.3545 12.1431 24.47 12.1547 24.5844 12.1436C24.6988 12.1326 24.8099 12.0991 24.9113 12.0451C25.0128 11.9911 25.1026 11.9177 25.1757 11.829C25.2488 11.7402 25.3037 11.638 25.3373 11.5281C25.3708 11.4182 25.3824 11.3027 25.3714 11.1883C25.3603 11.0739 25.3268 10.9628 25.2728 10.8613C25.2189 10.7599 25.1454 10.67 25.0567 10.597V10.5993ZM18.5794 16.0931C17.9669 19.207 14.0002 21.0001 14.0002 21.0001C14.0002 21.0001 10.0335 19.207 9.42104 16.0931C9.04771 14.1821 9.86321 12.2606 11.9375 12.2501C12.3959 12.2702 12.8376 12.4276 13.2053 12.7017C13.5731 12.9759 13.8501 13.3543 14.0002 13.7878C14.1503 13.3543 14.4273 12.9759 14.7951 12.7017C15.1629 12.4276 15.6046 12.2702 16.0629 12.2501C18.1407 12.2606 18.9527 14.1821 18.5794 16.0931Z" fill="#35B7FA"/>
<path d="M18.578 16.093C17.9655 19.2068 13.9989 21 13.9989 21C13.9989 21 10.0322 19.2068 9.41969 16.093C9.04636 14.182 9.86186 12.2605 11.9362 12.25C12.3945 12.2701 12.8362 12.4274 13.204 12.7016C13.5718 12.9758 13.8487 13.3542 13.9989 13.7877C14.149 13.3542 14.4259 12.9758 14.7937 12.7016C15.1615 12.4274 15.6032 12.2701 16.0615 12.25C18.1394 12.2605 18.9514 14.182 18.578 16.093Z" fill="white"/>
</svg>
